<?xml version="1.0" encoding="utf-8"?>
<!-- Generator: Adobe Illustrator 22.1.0, SVG Export Plug-In . SVG Version: 6.00 Build 0)  -->
<svg version="1.1" id="VK_1_" xmlns="http://www.w3.org/2000/svg" xmlns:xlink="http://www.w3.org/1999/xlink" x="0px" y="0px"
	 viewBox="0 0 1024 1024" style="enable-background:new 0 0 1024 1024;" xml:space="preserve">
<style type="text/css">
	.st0{fill:#E08D2D;}
	.st1{fill:#FFFFFF;}
</style>
<g id="flat">
	<g id="amazon">
		<path class="st0" d="M511,1024c282.8,0,512-229.2,512-512S793.8,0,511,0S-1,229.2-1,512S228.2,1024,511,1024z"/>
		<path class="st1" d="M518.2,373.8c-27,3.6-53.9,8.5-76.2,19.3c-43.4,18.2-72.7,56.8-72.7,113.7c0,71.4,44.6,107.6,100.9,107.6
			c18.8,0,34-2.4,48.1-6c22.3-7.3,41.1-20.5,63.3-44.7c12.9,18.2,16.4,26.6,38.7,45.9c5.9,2.4,11.7,2.4,16.4-1.2
			c14.1-12.1,38.7-33.8,51.6-45.9c5.9-4.9,4.7-12.1,1.2-18.2c-12.9-16.9-25.8-31.4-25.8-64V371.4c0-46,3.5-88.3-29.3-119.7
			c-27-25.4-69.2-35.1-102-35.1h-14.1C458.4,220.2,395,246.8,380.9,323c-2.3,9.6,4.7,13.3,9.4,14.5L456,346
			c7-1.2,10.5-7.3,11.7-13.3c5.9-26.6,27-39.8,50.4-42.3h4.7c14,0,29.3,6.1,37.5,18.1c9.3,14.5,8.2,33.9,8.2,50.8v9.7
			C553.4,370.2,535.8,371.4,518.2,373.8z M568.6,439.1c0,27.8,1.1,49.6-12.9,73.7c-8.2,16.9-22.3,27.8-37.5,31.4
			c-2.3,0-5.8,1.2-9.4,1.2c-25.8,0-41.1-20.6-41.1-50.8c0-38.7,22.3-56.8,50.4-65.3c15.3-3.6,32.9-4.8,50.4-4.8V439.1L568.6,439.1z
			 M784.7,778.5c28.7-25,40.8-70.3,41.4-93.9v-3.9c0-5.3-1.3-9.2-2.5-11.2c-5.7-7.2-47.8-13.8-84.1-2.6
			c-10.2,3.3-19.1,7.9-27.4,13.8c-6.4,4.6-5.1,10.5,1.3,9.8c7-1.3,15.9-2,26.1-3.3c22.3-1.9,48.4-2.6,54.8,5.9
			c8.9,11.1-10.2,59.8-18.5,80.8C773.2,780.5,778.9,783.1,784.7,778.5L784.7,778.5z M199.1,684.5c82.2,76.9,190.5,122.8,311.6,122.8
			c75.2,0,161.8-21.7,228.7-63.1c8.9-5.3,17.8-11.2,26.1-17.7c11.5-8.5,1.3-21.7-10.2-16.5c-5.1,2-10.8,4.6-15.9,6.6
			c-73.3,29.6-150.4,43.4-221.8,43.4c-113.4,0-223-32.2-311.6-85.4C197.8,670.1,192.1,678.6,199.1,684.5L199.1,684.5z"/>
	</g>
</g>
</svg>
