<?xml version="1.0" encoding="utf-8"?>
<!-- Generator: Adobe Illustrator 22.1.0, SVG Export Plug-In . SVG Version: 6.00 Build 0)  -->
<svg version="1.1" id="VK_1_" xmlns="http://www.w3.org/2000/svg" xmlns:xlink="http://www.w3.org/1999/xlink" x="0px" y="0px"
	 viewBox="0 0 1024 1024" style="enable-background:new 0 0 1024 1024;" xml:space="preserve">
<style type="text/css">
	.st0{fill:#0F78B9;}
	.st1{fill:#D0E317;}
	.st2{fill:#96000B;}
	.st3{fill:#FFFFFF;}
</style>
<g>
	<path class="st0" d="M486.5,3c17,0,33.9,0,50.9,0c3.5,1.1,7,2.8,10.6,3c47.6,2.8,93.6,13,138.1,29.4
		c96.3,35.5,175.1,94.6,235.7,177.5c48.7,66.7,79.6,140.9,91.4,222.8c2.5,16.9,5.1,33.9,7.7,50.8c0,17,0,33.9,0,50.9
		c-1.1,3.5-2.5,7-3.1,10.6c-5.5,32.8-7.9,66.4-16.8,98.2c-34.5,123.4-105.5,221.1-213,291.4c-61.7,40.3-129.1,66-202.4,75.9
		c-16.1,2.2-32.2,5-48.3,7.5c-17,0-33.9,0-50.9,0c-3.5-1.1-7-2.9-10.6-3.1c-47.6-2.6-93.6-12.9-138.1-29.3
		C241.4,953.1,162.6,894,102,811.1c-48.7-66.7-79.6-140.9-91.4-222.8c-2.5-16.9-5.1-33.9-7.7-50.8c0-17,0-33.9,0-50.9
		c1.9-12.3,4.2-24.6,5.6-37c5.2-45.6,17-89.6,34.6-131.8c36.2-86.6,91.9-158.4,167.6-214.1c67.4-49.6,142.3-80.9,225.1-93
		C452.7,8.2,469.6,5.6,486.5,3z M354.3,276.8c-22.6,0.3-37,9.3-44.1,32.3c-2.3,7.5-15.4,13.6-24.7,16.4c-12.7,3.9-26.7,3.5-39.9,5.8
		c-14.5,2.5-26.6,9.3-31.3,24.4c-7.8,24.8,8.3,45.7,36.1,47.1c20.3,1.1,40.7,0.7,60.8,2.7c14.5,1.5,30.1,1.7,43.5,14.5
		c-18.6-4-33.7-4.1-45.1,11.6c-2.5,3.5-8.8,5.3-13.6,6c-15,2.2-30.1,3.5-45.2,4.9c-10.6,1-16,6.8-16.5,17.2
		c-0.8,16.4,10.8,29.6,29.5,34.7c55,15,107.5,36.2,157.2,64c4.6,2.6,8.8,6,13.2,9c-12.8-1.1-24.2-5.7-35.6-5.6
		c-18.4,0.1-12.4,17.8-16.5,28.9c-6.7,0-13.1-0.7-19.3,0.1c-12.1,1.5-24.3,3.1-36,6.2c-6.2,1.7-11.8,6.4-17,10.5
		c-7.1,5.6-13.2,14.5-7.4,21.7c4.4,5.5,15.2,8.7,23,8.5c33.5-0.8,66.9-3.4,99.1,9.1c19.2,7.4,28.5,24.2,24.4,44.4
		c-1.4,7-3.2,14.1-6,20.6c-10.9,24.9-27.6,45.4-48.8,62.5c2-6.1,5.6-11.1,8.6-16.5c12.3-22.2,26.5-43.6,26-70.5
		c-0.3-19.5-10.3-28.4-28.5-21c-18.1,7.3-35,18.3-51.4,29.1c-7.1,4.7-11.9,12.9-17.7,19.6c1.4,1.3,2.8,2.6,4.2,3.9
		c2.4-3.3,4.2-7.4,7.3-9.7c10.1-7.5,20-15.9,31.3-21c6.1-2.7,17-2,21.9,1.9c4.2,3.4,5.3,14.2,3.6,20.6c-6.8,26.9-23,47.8-45.8,63.3
		c-13.6,9.2-23.4,7.3-37-6.8c-2.8,11.3-6.8,21.2-7.5,31.3c-1.4,21,10.7,33.4,31.5,31.7c11.9-0.9,25.5-2.8,35-9.2
		c20.8-14.1,41.3-29.7,58.7-47.7c23.6-24.4,43.1-52.2,53-85.6c7.4-25.1-1.2-43.2-25.7-51.6c-11.2-3.9-23-6.1-34.5-9.1
		c18.9-1.3,37.8-3,54.9,7.6c17.5,10.9,27.6,26.6,28.4,49.2c5.3-3.9,9-6.5,12.6-9.3c8.6-6.8,15.5-7.6,25.2,0.5
		c10.4,8.7,23.4,15.1,36.1,20.3c12.1,4.9,25.1,3.5,36.3-4.4c11.8-8.2,11-16.7-1-24.5c-13.3-8.6-26.1-18-40.6-28.1
		c-4.7,2.1-12.2,5.4-19.1,8.4c3.4-5.4,9.9-11.1,9.1-15.4c-0.8-4.4-8.5-8-13.9-10.7c-6.5-3.3-13.6-5.4-20.5-8c4.6-1.4,8.8-1.3,13-0.9
		c4.6,0.4,9.2,1.6,13.8,1.8c50.1,2.2,97.8-9,143.2-28.8c61-26.6,80.5-70.4,77.2-127.1c-1.9-33-8.9-66.3-18.6-98
		c-18.4-60-53.9-107.7-111.5-136.8c-55.3-28-114.1-33-174.4-27.4c-61,5.7-119.7,21.4-176.5,44.2c-14.4,5.8-28.2,13.3-41.2,21.7
		c-7,4.4-10.3,12.9-4.8,21.3c5.3,8,12.6,8,21.3,5.1C301.2,279.6,327,273.9,354.3,276.8z"/>
	<path class="st1" d="M354.3,276.8c-27.3-2.9-53.1,2.8-78.4,11.3c-8.7,2.9-16,2.9-21.3-5.1c-5.5-8.3-2.2-16.8,4.8-21.3
		c13.1-8.3,26.9-15.9,41.2-21.7c56.8-22.8,115.5-38.5,176.5-44.2c60.3-5.6,119.1-0.6,174.4,27.4C709.1,252.3,744.6,300,763,360
		c9.7,31.7,16.7,65,18.6,98c3.3,56.7-16.2,100.5-77.2,127.1c-45.3,19.8-93.1,31-143.2,28.8c-4.6-0.2-9.2-1.4-13.8-1.8
		c-4.2-0.4-8.4-0.4-13,0.9c6.9,2.6,14,4.7,20.5,8c5.3,2.7,13,6.4,13.9,10.7c0.8,4.3-5.7,10-9.1,15.4c6.9-3,14.4-6.4,19.1-8.4
		c14.5,10.1,27.3,19.4,40.6,28.1c12,7.8,12.7,16.3,1,24.5c-11.2,7.8-24.2,9.3-36.3,4.4c-12.7-5.2-25.7-11.5-36.1-20.3
		c-9.7-8.1-16.6-7.3-25.2-0.5c-3.5,2.8-7.3,5.4-12.6,9.3c-0.9-22.6-11-38.4-28.4-49.2c-17.1-10.6-36.1-8.9-54.9-7.6
		c11.5,3,23.3,5.3,34.5,9.1c24.4,8.4,33.1,26.4,25.7,51.6c-9.9,33.4-29.4,61.2-53,85.6c-17.4,18-37.9,33.6-58.7,47.7
		c-9.5,6.4-23,8.2-35,9.2c-20.8,1.6-32.9-10.8-31.5-31.7c0.7-10.1,4.7-20,7.5-31.3c13.6,14.1,23.4,16,37,6.8
		c22.8-15.4,39-36.4,45.8-63.3c1.6-6.5,0.6-17.2-3.6-20.6c-4.9-3.9-15.8-4.7-21.9-1.9c-11.3,5.1-21.2,13.5-31.3,21
		c-3.1,2.3-4.9,6.4-7.3,9.7c-1.4-1.3-2.8-2.6-4.2-3.9c5.8-6.6,10.6-14.9,17.7-19.6c16.5-10.8,33.3-21.8,51.4-29.1
		c18.3-7.3,28.2,1.5,28.5,21c0.5,26.9-13.7,48.4-26,70.5c-3,5.4-6.6,10.4-8.6,16.5c21.1-17.1,37.8-37.7,48.8-62.5
		c2.9-6.5,4.6-13.6,6-20.6c4.2-20.3-5.2-37-24.4-44.4c-32.2-12.5-65.6-9.9-99.1-9.1c-7.8,0.2-18.5-2.9-23-8.5
		c-5.8-7.2,0.3-16.2,7.4-21.7c5.2-4.1,10.8-8.8,17-10.5c11.7-3.2,23.9-4.7,36-6.2c6.2-0.8,12.6-0.1,19.3-0.1
		c4.1-11.1-1.9-28.8,16.5-28.9c11.4,0,22.9,4.5,35.6,5.6c-4.4-3-8.6-6.4-13.2-9c-49.8-27.8-102.2-49-157.2-64
		c-18.6-5.1-30.3-18.3-29.5-34.7c0.5-10.5,5.9-16.2,16.5-17.2c15.1-1.4,30.2-2.8,45.2-4.9c4.8-0.7,11-2.5,13.6-6
		c11.4-15.7,26.6-15.6,45.1-11.6c-13.4-12.8-29-13-43.5-14.5c-20.2-2-40.6-1.7-60.8-2.7c-27.8-1.5-43.9-22.3-36.1-47.1
		c4.7-15,16.8-21.9,31.3-24.4c13.3-2.3,27.2-1.9,39.9-5.8c9.3-2.8,22.5-9,24.7-16.4C317.2,286.1,331.7,277,354.3,276.8z M589,453.1
		c-29.5,0.4-37.1,5.2-38.6,19.7c-2.9,27.7,8,48.7,31.3,63.2c40.5,25.4,110.3,21.1,147.4-9.3c17.2-14.1,25-32.8,21.3-55.2
		c-1.5-9.4-6.7-17.4-17-17.8c-13.4-0.5-27.3-0.8-40.4,1.9c-22.1,4.6-43.9,7.3-66.4,3.2C611.7,456.2,596.7,454.3,589,453.1z
		 M576,422.6c1-9.6,0-19.1-8-25.3c-3.2-2.5-11-2.9-14.6-0.7c-9.6,5.7-9.1,15.7-8.1,23.7c4.9-6,10.2-12.5,15.5-19.1
		C565.7,408.1,570.6,415,576,422.6z M753.3,421.5c1.3-10.3,0.1-20.8-11-26.1c-3.2-1.5-10,0.6-13,3.3c-6.8,6.5-8.4,15.2-6.5,23.2
		c5-7,10-14,15-20.9C742.9,407.8,748.1,414.6,753.3,421.5z"/>
	<path class="st2" d="M589,453.1c7.7,1.2,22.8,3.1,37.6,5.8c22.5,4,44.3,1.4,66.4-3.2c13.1-2.7,26.9-2.4,40.4-1.9
		c10.3,0.4,15.4,8.4,17,17.8c3.7,22.4-4.1,41.1-21.3,55.2c-37.1,30.4-106.9,34.7-147.4,9.3c-23.2-14.5-34.1-35.6-31.3-63.2
		C551.9,458.4,559.5,453.6,589,453.1z M574.1,456.7c-1,1.4-2,2.8-2.9,4.2c5.5,10,10.9,20,16.4,30c1.7-0.3,3.4-0.7,5.1-1
		c3.3-9.5,6.6-19,10.5-30.3C592.6,458.6,583.3,457.6,574.1,456.7z M697.8,459.3c5.1,11.5,9,20.3,12.9,29.2c1.6,0.2,3.1,0.5,4.7,0.7
		c5.3-9.8,10.5-19.7,17.5-32.6C719.3,457.6,709.5,458.3,697.8,459.3z"/>
	<path d="M576,422.6c-5.4-7.6-10.3-14.5-15.2-21.4c-5.3,6.5-10.6,13.1-15.5,19.1c-1-8-1.5-18,8.1-23.7c3.6-2.1,11.4-1.8,14.6,0.7
		C576,403.5,577,413,576,422.6z"/>
	<path d="M753.3,421.5c-5.3-6.9-10.4-13.7-15.6-20.5c-5,6.9-10,13.9-15,20.9c-1.9-8-0.3-16.7,6.5-23.2c2.9-2.8,9.8-4.9,13-3.3
		C753.4,400.6,754.6,411.1,753.3,421.5z"/>
	<path class="st3" d="M574.1,456.7c9.2,0.9,18.5,1.8,29.1,2.9c-3.9,11.4-7.2,20.9-10.5,30.3c-1.7,0.3-3.4,0.7-5.1,1
		c-5.5-10-10.9-20-16.4-30C572.1,459.5,573.1,458.1,574.1,456.7z"/>
	<path class="st3" d="M697.8,459.3c11.7-0.9,21.4-1.7,35-2.8c-6.9,12.9-12.2,22.8-17.5,32.6c-1.6-0.2-3.1-0.5-4.7-0.7
		C706.8,479.6,702.9,470.8,697.8,459.3z"/>
</g>
</svg>
