<?xml version="1.0" encoding="utf-8"?>
<!-- Generator: Adobe Illustrator 22.1.0, SVG Export Plug-In . SVG Version: 6.00 Build 0)  -->
<svg version="1.1" id="Facebook_1_" xmlns="http://www.w3.org/2000/svg" xmlns:xlink="http://www.w3.org/1999/xlink" x="0px"
	 y="0px" viewBox="0 0 1024 1024" style="enable-background:new 0 0 1024 1024;" xml:space="preserve">
<style type="text/css">
	.st0{fill:#1B2C56;}
	.st1{fill:#FFFFFF;}
</style>
<g id="Background">
	<circle id="bg" class="st0" cx="512" cy="512" r="512"/>
</g>
<path id="Facebook" class="st1" d="M672.8,305.6V203.9c-3.7,0-7.5,0-11.2,0c-9,0-18,0-27,0c-11,0-21.9,0-32.9,0
	c-9.7,0-19.3-0.1-29,0c-14.6,0.2-28.4,0.9-42.4,5.4c-13.5,4.3-26.2,12-36.9,21.1c-6.2,5.3-12,10.9-17.3,17.2
	c-2.1,2.6-4.1,5.3-5.9,8.1c-5.5,8.4-9.9,17.7-13.6,27.5c-0.8,2.2-1.6,4.4-2.4,6.7c-5.6,16.3-5.8,34.1-5.8,51.3c0,2.1,0,4.4,0,6.6
	c0,34,0,79.3,0,79.3h-97v112h93.5h2.5v281h111V536.6L659,538l13.6-110.1l-113.8-0.2v-85c0,0-0.2-36.2,30.5-36.8L672.8,305.6z"/>
</svg>
