<?xml version="1.0" encoding="utf-8"?>
<!-- Generator: Adobe Illustrator 22.1.0, SVG Export Plug-In . SVG Version: 6.00 Build 0)  -->
<svg version="1.1" id="Instagram_2_" xmlns="http://www.w3.org/2000/svg" xmlns:xlink="http://www.w3.org/1999/xlink" x="0px"
	 y="0px" viewBox="0 0 1024 1024" style="enable-background:new 0 0 1024 1024;" xml:space="preserve">
<style type="text/css">
	.st0{fill:#5BC8F3;}
	.st1{fill:#FBBC0E;}
	.st2{fill:#DA2D59;}
	.st3{fill:#53B26B;}
</style>
<g>
	<path class="st0" d="M67.3,16.1C55.6,28.3,48.8,47.2,48.8,72v880.5c0,24.8,6.8,43.7,18.5,55.8l3.2,2.7l492.9-492.9v-5.9v-5.9L70,13
		L67.3,16.1z"/>
	<path class="st1" d="M727.6,682.4L563.3,518.1v-5.9v-5.9L727.6,342l3.6,2.3L926.1,455c55.8,31.5,55.8,83.3,0,114.8L731.3,680.1
		L727.6,682.4z"/>
	<path class="st2" d="M731.3,680.1l-168-167.9l-496,496.1c18.5,19.4,48.6,21.6,82.8,2.3L731.3,680.1"/>
	<path class="st3" d="M731.3,343.9L150.1,13.4C115.9-5.9,85.7-3.7,67.3,15.7l496.1,496.1L731.3,343.9z"/>
</g>
</svg>
