<?xml version="1.0" encoding="utf-8"?>
<!-- Generator: Adobe Illustrator 22.1.0, SVG Export Plug-In . SVG Version: 6.00 Build 0)  -->
<svg version="1.1" id="Instagram_2_" xmlns="http://www.w3.org/2000/svg" xmlns:xlink="http://www.w3.org/1999/xlink" x="0px"
	 y="0px" viewBox="0 0 1024 1024" style="enable-background:new 0 0 1024 1024;" xml:space="preserve">
<style type="text/css">
	.st0{fill:#EA654E;}
	.st1{fill:#FFFFFF;}
</style>
<g id="Background">
	<circle id="bg" class="st0" cx="512" cy="512" r="512"/>
</g>
<g id="Instagram_3_">
	<circle class="st1" cx="658.8" cy="364.6" r="33.1"/>
	<path class="st1" d="M512,655.9c-79.3,0-143.9-64.6-143.9-143.9S432.7,368.1,512,368.1S655.9,432.7,655.9,512
		S591.3,655.9,512,655.9z M512,413.1c-54.5,0-98.9,44.4-98.9,98.9c0,54.5,44.4,98.9,98.9,98.9c54.5,0,98.9-44.4,98.9-98.9
		C610.9,457.5,566.5,413.1,512,413.1z"/>
	<path class="st1" d="M603.7,800H420.4c-103.4,0-187.5-84.1-187.5-187.5v-201C232.9,308.1,317,224,420.4,224h183.3
		c103.4,0,187.5,84.1,187.5,187.5v201C791.2,715.9,707.1,800,603.7,800z M420.4,269c-78.6,0-142.5,63.9-142.5,142.5v201
		c0,78.6,63.9,142.5,142.5,142.5h183.3c78.6,0,142.5-63.9,142.5-142.5v-201c0-78.6-63.9-142.5-142.5-142.5H420.4z"/>
</g>
</svg>
