<?xml version="1.0" encoding="utf-8"?>
<!-- Generator: Adobe Illustrator 22.1.0, SVG Export Plug-In . SVG Version: 6.00 Build 0)  -->
<svg version="1.1" id="iTunes_2_" xmlns="http://www.w3.org/2000/svg" xmlns:xlink="http://www.w3.org/1999/xlink" x="0px" y="0px"
	 viewBox="0 0 1024 1024" style="enable-background:new 0 0 1024 1024;" xml:space="preserve">
<style type="text/css">
	.st0{fill:#B151B2;}
	.st1{fill:#FFFFFF;}
</style>
<g id="Background">
	<circle id="bg_1_" class="st0" cx="512" cy="512" r="512"/>
</g>
<path id="iTunes_1_" class="st1" d="M402.3,703.4c0,4.1-0.1,5.5-0.7,11.9c-1.3,13.6-8.5,25.3-18.1,35.6c-4.5,4.9-9.6,9.3-15.2,13
	c-11.2,7.4-24.3,11.9-37.7,14.1c-29.3,4.8-57.1,2.6-74.9-17.3c-8.8-9.8-15-21.3-16.8-34.1c-2.3-17,0.1-35.9,13.5-48.6
	c12.5-11.8,30.3-18.4,47.1-23c3.2-0.9,6.4-1.7,9.6-2.4c27.7-6.2,46-5.5,53.9-14c7.9-8.5,7.1-24.3,7.1-52.6s0-239.6,0-239.6
	c0-3.9,0-7.7,0-11.5c0-5.5,0-11.1,0-16.6c0-4,0.7-7.4,3-10.8c4.2-6.1,11.4-9.3,18.4-10.9c0.2,0,0.3-0.1,0.5-0.1
	c1.6-0.4,3.2-0.7,4.8-1c2.6-0.5,5.1-1,7.7-1.5c3.4-0.7,6.8-1.3,10.2-2c4.1-0.8,8.2-1.6,12.4-2.4c4.8-0.9,9.5-1.8,14.3-2.7
	c5.3-1,10.6-2,15.8-3c5.7-1.1,11.4-2.1,17.1-3.2c6-1.1,12-2.2,18.1-3.4c6.2-1.2,12.5-2.3,18.7-3.5c6.3-1.2,12.7-2.3,19.1-3.5
	c6.4-1.2,12.7-2.3,19.1-3.5c6.3-1.2,12.5-2.3,18.8-3.5c6.1-1.1,12.1-2.2,18.2-3.3c5.8-1.1,11.5-2.1,17.3-3.2c5.4-1,10.7-2,16.1-2.9
	c4.9-0.9,9.7-1.8,14.6-2.7c4.2-0.8,8.5-1.6,12.7-2.3c3.5-0.6,7-1.3,10.6-1.9c2.7-0.5,5.4-1,8.1-1.5c6.3-1.2,13.1-3,18.9,1
	c5.2,3.6,7.3,10.2,8,16.2c0.2,2.1,0.3,4.1,0.3,6.2c0,28.9,0,24.6,0,24.6c0,2.6,0,5.2,0,7.8c0,7.1,0,14.3,0,21.4
	c0,10.7,0,21.5,0,32.2c0,13.3,0,26.7,0,40c0,15,0,30,0,45c0,15.7,0,31.4,0,47.1c0,15.4,0,30.9,0,46.3c0,14.2,0,28.4,0,42.7
	c0,12,0,24.1,0,36.1c0,8.9,0,17.8,0,26.7c0,16.9-0.7,35.1-10.5,49.8c-8.3,12.5-23,20.8-36.6,26.3c-8.4,3.4-17.2,5.9-26.2,7.6
	c-19.2,3.6-38.4,3-56.3-5.3c-6.4-3-12.3-6.7-17.6-11.1c-14.1-12-19.9-27.8-18.6-45.4c0.4-6,1.6-12,3.6-17.8
	c3.7-10.6,10.5-18.1,19.7-24.9c10.4-7.7,22.5-13.7,35.3-17.1c8.7-2.3,17.5-4.2,26.4-5.7c8.1-1.3,16.3-1.8,24.2-3.4
	c13.2-2.7,24.8-9.8,24.9-25.6c0-3.8,0-7.5,0-11.3c0-5.8,0-11.7,0-17.5c0-7.3,0-14.6,0-21.9c0-8.2,0-16.4,0-24.6c0-8.5,0-17,0-25.6
	c0-8.3,0-16.5,0-24.8c0-7.4,0-14.8,0-22.2c0-6,0-12,0-18c0-4,0-7.9,0-11.9c0-3.6,0.1-6.8-2.2-9.9c-2.7-3.6-7.4-4.7-11.9-4.3
	c-0.3,0-0.5,0-0.8,0.1c-2.2,0.3-4.5,0.7-6.7,1c-4.3,0.7-8.5,1.5-12.7,2.2c-5.9,1-11.8,2.1-17.6,3.2c-7.1,1.3-14.3,2.6-21.4,3.9
	c-8,1.5-16,2.9-24,4.4c-8.5,1.6-17,3.1-25.5,4.7c-8.6,1.6-17.2,3.2-25.8,4.8c-8.3,1.5-16.6,3.1-25,4.6c-7.7,1.4-15.3,2.9-23,4.3
	c-6.6,1.2-13.2,2.5-19.9,3.7c-5.2,1-10.4,1.9-15.6,2.9c-3.4,0.6-6.8,1.3-10.2,1.9c-3.9,0.7-7.1,1.5-9.8,4.3
	c-4.3,4.4-6.2,10.8-6.2,16.4C402.8,455.7,402.3,703.1,402.3,703.4z"/>
</svg>
