<?xml version="1.0" encoding="utf-8"?>
<!-- Generator: Adobe Illustrator 22.1.0, SVG Export Plug-In . SVG Version: 6.00 Build 0)  -->
<svg version="1.1" id="VK_1_" xmlns="http://www.w3.org/2000/svg" xmlns:xlink="http://www.w3.org/1999/xlink" x="0px" y="0px"
	 viewBox="0 0 1024 1024" style="enable-background:new 0 0 1024 1024;" xml:space="preserve">
<style type="text/css">
	.st0{fill:#00A0EE;}
	.st1{fill:#FFFFFF;}
</style>
<circle id="ellipse" class="st0" cx="512" cy="511" r="513"/>
<path id="logo" class="st1" d="M803.8,325.2c-9.8-23-23-46.1-39.5-62.5c-23-23-52.7-39.5-82.2-52.7c-32.9-13.2-69.1-19.6-105.2-19.6
	c-98,0-195.8,0-293.8,0v641.2c0.2,0,0.2,0,0.2,0c52.7,0,112.6,0,168.5,0c16.4,0,29.7-9.8,29.7-29.7c0-36.3,0-75.5,0-115
	c0-6.6,0-6.6,6.6-6.6c19.6,0,42.7,0,62.5,0c26.3,0,52.7-3.2,79-9.8c39.5-9.8,75.5-26.3,108.6-52.7c29.7-23,52.7-55.9,65.7-92
	c9.8-26.3,16.4-55.9,16.4-85.6C823.4,400.8,817,361.3,803.8,325.2z"/>
</svg>
