<?xml version="1.0" encoding="utf-8"?>
<!-- Generator: Adobe Illustrator 22.1.0, SVG Export Plug-In . SVG Version: 6.00 Build 0)  -->
<svg version="1.1" id="Soundcloud" xmlns="http://www.w3.org/2000/svg" xmlns:xlink="http://www.w3.org/1999/xlink" x="0px" y="0px"
	 viewBox="0 0 1024 1024" style="enable-background:new 0 0 1024 1024;" xml:space="preserve">
<style type="text/css">
	.st0{fill:#E85D20;}
	.st1{fill:#FFFFFF;}
</style>
<g id="Background">
	<circle id="bg" class="st0" cx="512" cy="512" r="512"/>
</g>
<g id="Soundcloud_1_">
	<path class="st1" d="M865.6,561.1c-17-83.2-99.4-71.7-117.9-63.2c0,0-4.6-106-114.1-134.5c0,0-57.4-16.2-105.6,12.3v289.4
		c7.3,0,14.6,0,21.9,0c17.8,0,35.6,0,53.5,0c22.7,0,45.3,0,68,0c21.9,0,43.8,0,65.8,0c16.9,0,33.7-0.1,50.6-0.1
		c13.4,0,21.6-4.2,31.5-9.3C843.6,643,876.6,615.3,865.6,561.1z"/>
	<polygon class="st1" points="481.8,665.1 504.5,665.1 504.5,389.6 481.8,410.4 	"/>
	<polygon class="st1" points="435.5,665.1 457.7,665.1 457.7,429.5 435.5,416.4 	"/>
	<polygon class="st1" points="389.3,665.1 411.3,665.1 411.3,411.2 389.3,407.7 	"/>
	<polygon class="st1" points="342.1,665.1 364.2,665.1 364.2,411.2 342.1,420.1 	"/>
	<polygon class="st1" points="295.7,665.1 317.8,665.1 317.8,435.5 295.7,458.6 	"/>
	<polygon class="st1" points="248.4,665.1 270.9,665.1 270.9,496.2 248.4,491.3 	"/>
	<polygon class="st1" points="201.8,655.4 224.4,665.1 224.4,493.3 201.8,502.2 	"/>
	<path class="st1" d="M179.6,636.9V520.2C179.6,520.2,127.1,573.2,179.6,636.9z"/>
</g>
</svg>
