<?xml version="1.0" encoding="utf-8"?>
<!-- Generator: Adobe Illustrator 22.1.0, SVG Export Plug-In . SVG Version: 6.00 Build 0)  -->
<svg version="1.1" id="Spotify" xmlns="http://www.w3.org/2000/svg" xmlns:xlink="http://www.w3.org/1999/xlink" x="0px" y="0px"
	 viewBox="0 0 1024 1024" style="enable-background:new 0 0 1024 1024;" xml:space="preserve">
<style type="text/css">
	.st0{fill:#14CB4B;}
	.st1{fill:#FFFFFF;}
</style>
<g id="Background">
	<circle id="bg" class="st0" cx="512" cy="512" r="512"/>
</g>
<path class="st1" d="M242.1,326.1c0.3-0.1,0.5-0.2,0.8-0.2c20.8-6.3,42.2-10.8,63.5-14.6c47.5-8.6,95.7-13,143.9-13.5
	c65-0.6,130.2,6.2,193.4,21.6c36,8.7,71.4,20.2,105.6,34.5c16,6.7,32,13.4,47.4,21.5c13.4,7,26.8,14,35.7,26.6
	c9.9,14,8.6,30.1-1.4,43.7c-20.9,28.4-44.4,17.7-70.5,5.1c-49-23.7-104.8-41.5-158.1-52.7c-60.1-12.6-121.7-17.9-183-15.4
	c-52.6,2.1-104.9,10.1-155.8,23.5c0,0-46.6,11.9-56.3-29.9C198.3,337.9,242,326.2,242.1,326.1z"/>
<path class="st1" d="M265.8,480.1c0.2-0.1,0.4-0.1,0.6-0.2c17.9-5.5,36.3-9.3,54.6-12.6c40.8-7.4,82.3-11.2,123.7-11.6
	c55.9-0.5,111.9,5.4,166.3,18.5c31,7.5,61.4,17.4,90.8,29.6c13.8,5.7,27.5,11.5,40.7,18.5c11.5,6,23,12,30.7,22.9
	c8.5,12,7.4,25.9-1.2,37.6c-18,24.4-38.2,15.2-60.6,4.4c-42.2-20.4-90.1-35.6-135.9-45.3c-51.6-10.9-104.6-15.4-157.3-13.3
	c-45.2,1.8-90.2,8.7-133.9,20.2c0,0-40.1,10.2-48.4-25.7C228.2,490.2,265.7,480.2,265.8,480.1z"/>
<path class="st1" d="M282.5,623.4c0.2,0,0.4-0.1,0.6-0.2c15.2-4.7,31-7.9,46.6-10.8c34.8-6.3,70.3-9.6,105.7-9.9
	c47.7-0.4,95.6,4.6,142,15.8c26.4,6.4,52.4,14.8,77.5,25.3c11.7,4.9,23.5,9.8,34.8,15.8c9.8,5.2,19.7,10.3,26.2,19.5
	c7.3,10.3,6.3,22.1-1.1,32.1c-15.3,20.9-32.6,13-51.7,3.8c-36-17.4-76.9-30.4-116-38.7c-44.1-9.3-89.3-13.2-134.3-11.3
	c-38.6,1.6-77,7.4-114.4,17.3c0,0-34.2,8.7-41.4-21.9C250.4,632,282.5,623.4,282.5,623.4z"/>
</svg>
