<?xml version="1.0" encoding="utf-8"?>
<!-- Generator: Adobe Illustrator 22.1.0, SVG Export Plug-In . SVG Version: 6.00 Build 0)  -->
<svg version="1.1" id="Twitter_1_" xmlns="http://www.w3.org/2000/svg" xmlns:xlink="http://www.w3.org/1999/xlink" x="0px" y="0px"
	 viewBox="0 0 1024 1024" style="enable-background:new 0 0 1024 1024;" xml:space="preserve">
<style type="text/css">
	.st0{fill:#177DBC;}
	.st1{fill:#FFFFFF;}
</style>
<g id="Background">
	<circle id="bg" class="st0" cx="512" cy="512" r="512"/>
</g>
<path id="Twitter" class="st1" d="M743,348.5c0,0,52.7-44.3,51-64.1c0,0-60.8,26.7-74.1,27.9c0,0-4.2-4.3-11.1-9.8
	c-2.3-1.9-4.9-3.9-7.8-5.9c-5.3-3.9-10.8-7.2-16.6-10c-2.9-1.4-5.8-2.7-8.8-3.8c-19.4-8.5-40.6-10.6-61.5-8.3
	c-3,0.3-5.9,0.7-8.9,1.2c-34.6,5.4-64.1,26.4-82.7,55c-1.7,2.6-3.2,5.3-4.6,8c-2.8,5.5-5.1,11.3-6.7,17.3c-0.6,2.2-1.3,4.8-2,7.6
	c-0.6,2.8-1.3,5.7-1.7,8.6c-1.9,11.7,0,49.6,0,49.6s-153.8,4.8-252.4-123c0,0-48.6,92,35.3,156.4c0,0-17.1,7.6-49.3-11.4
	c0,0-16,70.1,87.9,118.2h-50.5c0,0,17.6,77.7,111.6,84.9c0,0-44.3,59.6-173.1,50.5c0,0,116.1,80.8,265.8,43.3c2.7-0.7,5.4-1.4,8-2.1
	c23.7-7.3,47.5-15.9,69.2-27.4c1.9-1,3.8-2,5.7-3c5.7-3.1,11.4-6.3,17.1-9.8c0,0,157.3-85.2,170.2-305.5c0,0,33.1-19.4,54.3-56.6
	C807.1,336.1,747.5,349.9,743,348.5z"/>
</svg>
