<?xml version="1.0" encoding="utf-8"?>
<!-- Generator: Adobe Illustrator 22.1.0, SVG Export Plug-In . SVG Version: 6.00 Build 0)  -->
<svg version="1.1" id="Youtube_1_" xmlns="http://www.w3.org/2000/svg" xmlns:xlink="http://www.w3.org/1999/xlink" x="0px" y="0px"
	 viewBox="0 0 1024 1024" style="enable-background:new 0 0 1024 1024;" xml:space="preserve">
<style type="text/css">
	.st0{fill:#CC172D;}
	.st1{fill:#FFFFFF;}
</style>
<g id="Background">
	<circle id="bg" class="st0" cx="512" cy="512" r="512"/>
</g>
<path id="Youtube" class="st1" d="M625.9,299.8c-58-1.7-116.1-2.1-174.1-1.2c-164.3,3.1-233.2,0.6-241.5,127
	c-1.8,53.5-1.9,106.8-0.4,160.3c8.2,137.8,52.4,135.3,241.9,139.6c52.9,0.8,105.9,0.6,158.8-0.8c133.3-3.7,195.3-0.4,203.5-138.9
	c1.5-53.4,1.4-106.7-0.4-160.2C805.5,298.7,734,302.9,625.9,299.8z M450.4,590.8c-0.3-57.3-0.3-114.6,0.1-171.9
	c53.3,28.3,107.2,57.4,160.9,86C557.7,533.4,503.8,562.5,450.4,590.8z"/>
</svg>
