<?xml version="1.0" ?><!DOCTYPE svg  PUBLIC '-//W3C//DTD SVG 1.1//EN'  'http://www.w3.org/Graphics/SVG/1.1/DTD/svg11.dtd'><svg enable-background="new 0 0 200 200" height="200px" id="Слой_1" version="1.1" viewBox="0 0 200 200" width="200px" xml:space="preserve" xmlns="http://www.w3.org/2000/svg" xmlns:xlink="http://www.w3.org/1999/xlink"><g><g><path d="M195.627,134.303c-0.268-0.037-0.534-0.074-0.801-0.109c0.146,2.545-0.441,5.102,0.352,8.203    c0.252-0.904,0.434-1.256,0.436-1.607C195.643,138.626,195.627,136.463,195.627,134.303z" fill="#CD332C"/><path d="M191.452,42.411c0.391-1.236,0.284-2.495-0.269-3.865c-0.244,1.217-0.509,2.433-0.713,3.657    c-0.027,0.165,0.225,0.507,0.389,0.536C191.041,42.771,191.398,42.579,191.452,42.411z" fill="#CD332C"/><path d="M5.024,59.124c-0.614,0.2-0.607,0.709-0.638,1.189c-0.032,0.478-0.008,0.961-0.008,1.441    c0.172,0.032,0.346,0.067,0.519,0.098c0.167-0.445,0.353-0.886,0.494-1.341C5.664,59.624,5.483,58.973,5.024,59.124z" fill="#CD332C"/><path d="M8.267,78.134c-0.012,0-0.024,0.002-0.037,0.002l0.024,0.023C8.259,78.151,8.262,78.143,8.267,78.134z" fill="#CD332C"/><path d="M35.685,17.75c0.435,0,0.468-0.4,0.477-0.741c-0.075-0.382-0.215-0.727-0.675-0.516    c-0.184,0.083-0.374,0.35-0.394,0.549C35.056,17.421,35.304,17.749,35.685,17.75z" fill="#CD332C"/><path d="M147.505,15.036c0.474,0.201,0.978,0.232,1.429-0.099c0.047-0.035,0.021-0.176,0.026-0.272    c-0.435-0.364-0.931-0.325-1.418-0.166C147.167,14.623,147.145,14.883,147.505,15.036z" fill="#CD332C"/><path d="M188.635,23.349c0.051,0.199,0.245,0.361,0.374,0.538c0.108-0.199,0.272-0.387,0.317-0.601    c0.066-0.339,0.053-0.696,0.076-1.048c0.535-0.918,0.894-1.889,0.892-2.968c0.226-0.07,0.46-0.126,0.681-0.216    c0.533-0.217,0.701-0.69,0.475-1.135c-0.11-0.221-0.604-0.331-0.928-0.339c-0.525-0.016-0.854,0.341-1.039,0.824l-0.063,0.058    c-0.321,0.144-0.595,0.352-0.829,0.614c-1.261,1.475-1.261,1.475-0.078,3.228C188.547,22.653,188.545,23.014,188.635,23.349z" fill="#CD332C"/><path d="M194.197,158.961c-0.021,0.087,0.046,0.229,0.117,0.299c0.035,0.034,0.174-0.033,0.264-0.058    c0.021-0.112,0.1-0.261,0.053-0.336C194.461,158.584,194.284,158.621,194.197,158.961z" fill="#CD332C"/><path d="M156.701,14.991c0.085,0.022,0.199-0.069,0.302-0.108c-0.021-0.09-0.015-0.222-0.069-0.26    c-0.084-0.058-0.246-0.102-0.318-0.058C156.343,14.733,156.375,14.909,156.701,14.991z" fill="#CD332C"/><path d="M168.962,15.821c0.204-0.044,0.397-0.151,0.595-0.232c-0.078-0.085-0.156-0.171-0.229-0.251    c-0.219,0.091-0.416,0.174-0.611,0.258C168.799,15.675,168.898,15.835,168.962,15.821z" fill="#CD332C"/><path d="M190.314,50.022c-0.066,0.311,0.056,0.476,0.297,0.411c0.065-0.018,0.09-0.192,0.133-0.294    c-0.061-0.094-0.117-0.188-0.178-0.285C190.48,49.91,190.331,49.953,190.314,50.022z" fill="#CD332C"/><path d="M8.254,78.16L8.23,78.136c-0.016,0.018-0.032,0.035-0.048,0.053C8.208,78.18,8.229,78.169,8.254,78.16z" fill="#CD332C"/><path d="M7.907,78.481C8,78.384,8.09,78.286,8.182,78.188c-0.076,0.021-0.155,0.039-0.214,0.084    C7.922,78.307,7.926,78.409,7.907,78.481z" fill="#CD332C"/><path d="M191.607,137.203c0.313-1.801,0.354-3.596-0.012-5.395c0.401-1.635,0.273-3.324-0.139-4.863    c-0.333-1.246-0.365-2.475-0.549-3.705c-0.004-0.524-0.006-1.049-0.008-1.57c0.033-0.654,0.059-1.307-0.76-1.54    c-1.338-1.313-0.799-2.388,0.364-3.474c0.392-0.364-0.032-0.939-0.687-0.9c-0.361,0.021-0.715,0.202-1.074,0.313    c-0.006,0.006-0.01,0.011-0.018,0.015c0.008-0.004,0.012-0.009,0.018-0.017c0.099-0.642-0.387-1.32,0.63-1.856    c1.155-0.604,1.263-1.7,0.274-2.163c-1.123-0.525-0.928-0.936-0.313-1.535c0.729-0.712,0.425-1.316-0.044-1.957    c-0.002,0-0.002,0.002-0.002,0.002c0.02-0.557,0.033-1.111,0.053-1.666c-0.007-1.017-0.012-2.033-0.014-3.049    c-0.003,0.002-0.003,0.006-0.006,0.006c0.003,0,0.003-0.004,0.003-0.006c-0.817-2.076-0.8-2.076-0.737-4.64    c0.044-1.786,0.053-3.575,0.037-5.361c-0.01-0.884,0.027-1.809-0.745-2.477c-0.155-3.8-0.846-7.566-0.747-11.381    c0.045-1.684-0.236-3.3-0.832-4.868c0.905-0.907,1.402-1.909,0.735-3.18c0.153-0.182,0.187-0.38,0.097-0.599    c0.689-1.117,0.768-2.207-0.138-3.255c0.243-1.066,0.489-2.135,0.733-3.203c0-0.001,0-0.001,0-0.001    c-0.015-1.557-0.033-3.113-0.047-4.669c0,0-0.002,0-0.002-0.001c0.022-1.769,0.045-3.536,0.068-5.305    c0.25-1.191-0.207-2.214-0.762-3.212c0,0,0,0,0-0.001c-0.006-1.04-0.012-2.08-0.019-3.122c0.185-1.618,0.212-3.241-0.294-4.801    c-0.412-1.269-0.158-2.449,0.221-3.645c0.207-1.506,0.039-3.048,0.764-4.508c0.379-0.766,0.338-1.76-0.016-2.623    c-0.07-0.174-0.371-0.345-0.568-0.35c-0.211-0.004-0.592,0.161-0.616,0.301c-0.185,1.036-0.299,2.083-0.45,3.234    c-0.779-0.746-0.287-1.924-1.242-2.386c0.043-0.501,0.086-1.002,0.131-1.501c-0.131,0.071-0.273,0.103-0.424,0.093    c0.002-0.104,0.008-0.208,0.012-0.312c0.139,0.071,0.273,0.144,0.412,0.217c0.929-2.005,0.596-4.127,0.571-6.22    c1.271-1.956,0.733-4.133,0.757-6.243c-0.261-1.341-1.896-0.369-2.391-1.47c-0.623-1.392-1.859-1.24-2.947-0.722    c-1.789,0.854-3.582,1.308-5.537,0.72c0,0,0,0,0,0.001c0-0.001,0-0.001-0.002-0.001c-0.402-0.58-0.896-0.944-1.617-0.58    c-1.151,0.581-2.295,1.186-3.438,1.783c-0.806,0.42-1.487,0.232-2.097-0.392h0.002c0.072-0.372,0.203-0.745,0.193-1.113    c-0.01-0.351-0.064-0.825-0.289-1.001c-0.168-0.132-0.781,0.008-0.953,0.219c-0.711,0.899-1.726,0.954-2.709,1.131    c-0.238-0.049-0.479-0.101-0.717-0.154c-0.818-0.9-1.91-0.776-2.896-0.604c-3.174,0.551-6.381,0.518-9.577,0.666    c-2.793,0.01-5.552-0.019-8.213-1.167c-1-0.429-2.241-0.305-3.372-0.43c-0.51-0.778-1.328-0.692-2.08-0.697    c-3.854-0.03-7.709-0.025-11.563-0.048c-5.021-0.028-10.041-0.14-15.059-0.064c-1.547,0.022-2.999-0.763-4.574-0.292    c-1.914,0.574-3.806,0.245-5.656-0.38v0.001c0,0,0-0.001-0.002-0.001c-0.44-0.046-0.885-0.091-1.329-0.137    c-0.109-0.037-0.215-0.061-0.315-0.075c-2.888-0.754-5.836-0.424-8.762-0.415c-3.277,0.008-6.49,0.998-9.792,0.64    c-3.254-1.193-6.627-0.826-9.951-0.601c-3.988,0.269-7.968,0.501-11.968,0.496c-2.041-0.003-4.136-0.101-6.058,0.861    c-1.913-0.045-3.799-0.34-5.723,0.262c-3.659,1.144-7.156,2.889-11.094,3.056c-0.617,0.025-1.217,0.4-1.825,0.615    c-0.235-0.12-0.481-0.156-0.741-0.119c-0.898-0.994-0.358-2.506-1.197-3.52c-1.974,0.669-1.991,0.663-3.15,1.984    c-0.541,0.617-1.024,0.67-1.568,0.124c-0.913-0.914-2.159-0.646-3.242-0.947c-0.52-0.145-1.116,0.037-1.385,0.455    c-1.237,1.933-3.217,2.661-5.22,3.378l0.001,0.001c-0.001,0-0.001,0-0.001,0c-0.58,0.101-1.149,0.224-1.485,0.787l0.162,0.212    c-0.001,0-0.001,0-0.001,0c-0.001,0.002-0.002,0.003-0.003,0.005c-0.053-0.072-0.106-0.146-0.158-0.217    c-1.707,0.409-2.813,1.399-3.076,3.195c0,0.001,0,0.001,0,0.002c-1.424,1.002-2.72,2.102-3.004,3.967v0.001    c-0.042,0.216-0.041,0.432,0.005,0.648c-0.078,1.401-1.208,2.613-0.818,4.071c0.326,1.222-0.042,2.088-0.739,3.12    c-0.931,1.376-1.457,3.012-0.029,4.525h0.001c-0.004,0.265-0.008,0.53-0.01,0.794c0,0,0,0,0-0.001    c-0.254,0.273-0.507,0.545-0.76,0.816h0.001c0,0.001-0.001,0.001-0.001,0.001c-0.216,0.962-0.571,1.92-0.599,2.889    c-0.021,0.645,0.224,1.594,1.346,0.954c0.461-0.228,0.922-0.457,1.384-0.684V46.37c0.089,1.278,0.183,2.555,0.272,3.832    C9.9,50.2,9.901,50.196,9.903,50.194C9.901,50.197,9.901,50.2,9.9,50.203c-0.146,0.229-0.179,0.473-0.1,0.732    c-0.04,0.772-0.082,1.545-0.121,2.318c0,0,0.001,0.001,0.001,0.002c-0.001-0.001-0.001-0.001-0.001-0.001    c-0.939,0.568-1.543,1.23-1.116,2.478c0.134,0.393-0.204,0.947-0.325,1.426c-0.001,0-0.001,0-0.001,0    c-0.013,0.248-0.022,0.498-0.032,0.745c-0.001,0.001-0.002,0.003-0.002,0.004c-0.391,0.247-0.617,0.59-0.625,1.06c0,0,0,0,0,0.001    c0.016,0.186-0.022,0.363-0.117,0.524c-1.272,1.293-0.961,2.889-0.469,4.263c0.569,1.583,0.354,2.964-0.213,4.406    c-0.001,0-0.001,0-0.002,0c0.229,0.737,0.459,1.474,0.689,2.209c0.26,0.523,0.52,1.043,0.778,1.564    c-0.448,0.103-0.669,0.392-0.685,0.846c-0.214,0.56-0.436,1.115-0.637,1.679c-0.216,0.603-0.23,1.173,0.353,1.605    c0.34,0.19,0.732,0.236,1.083,0.396c0.007,0.003,0.014,0.005,0.021,0.008H8.38c0.201,0.054,0.4,0.111,0.599,0.172    c-0.237,0.498-0.476,0.995-0.712,1.491c0.999-0.003,2.005-0.759,2.997,0.031c0.137,0.254,0.108,0.489-0.086,0.704    C7.781,79.7,7.324,80.68,8.982,83.597c0.402,1.855,0.67,3.781,0.309,5.608c-0.503,2.538-0.499,5.045-0.326,7.583    c-0.156,0.623-0.436,1.241-0.453,1.868c-0.217,7.876-0.75,15.747-0.479,23.635c0.334,9.695,1.147,19.344,2.593,28.938    c0,0,0,0.002,0.001,0.002c-0.001,0-0.001-0.002-0.002-0.002c0.16,4.697,0.678,9.354,1.527,13.978    c-0.262,1.905,0.576,3.634,0.87,5.45c-0.315,1.611,0.847,2.994,0.702,4.58c0.09,1.611,0.779,2.929,2.008,3.953    c0.17,0.144,0.508,0.24,0.689,0.166c0.169-0.068,0.292-0.385,0.333-0.608c0.176-0.935-0.355-1.72-0.562-2.577    c-0.215-0.887-0.269-1.783,0.617-2.413c0.716,0.99,0.475,2.408,1.466,3.275c-0.009,2.12,1.446,3.429,2.697,4.845    c0.283,0.316,0.655,0.389,1.015,0.17c0.638-0.388,1.483-0.49,1.816-1.305c0.787-0.227,1.779,0.479,2.397-0.523    c0.237-0.098,0.475-0.195,0.711-0.293c0.51,0.02,1.021,0.039,1.529,0.059h0.001c0.607,0.449,1.263,0.844,1.802,1.363    c0.389,0.373,0.746,0.748,1.269,0.461c1.729-0.951,3.489,0.192,5.219-0.136c0.001,0,0.001,0,0.002,0    c0.345,0.156,0.683,0.421,1.039,0.45c4.866,0.391,9.734,0.786,14.607,1.1c2.046,0.129,4.105,0.049,6.158,0.084    c3.973,0.066,7.945,0.164,11.905-0.289v0.002c2.584,0.017,5.205,0.312,7.742-0.026c2.163-0.285,4.319,0.133,6.479-0.409    c2.282-0.57,4.624,0.239,6.939,0.294c6.471,0.156,12.949,0.302,19.419,0.183c3.078-0.056,6.098-0.263,9.205,0.094    c5.879,0.669,11.838,0.48,17.725,1.271c1.66,0.223,3.357,0.145,4.871,1.065c0.459,0.278,1.003,0.036,1.468-0.218    c2.829,0.057,5.663-0.225,8.487,0.283c1.149,0.207,2.281-0.172,3.392-0.568c1.069-0.385,2.235-0.928,3.291-0.805    c0.949,0.111,1.362-0.158,1.929-0.725c0.594-0.596,1.732-0.693,1.639-1.893c0.47-0.537,0.938-1.073,1.41-1.608    c0.574,0.14,1.145,0.299,1.724,0.418c0.989,0.209,1.041,0.147,1.289-1.396h-0.003c0.326-0.504,0.582-1.082,0.998-1.496    c0.927-0.92,1.656-0.864,3.084,0.076c-0.047,0.383-0.146,0.771-0.135,1.15c0.053,1.682,0.285,1.766,1.78,1.336    c1.298-0.369,1.536-1.205,1.446-2.34c0.915-2.092,2.454-3.744,3.865-5.488c0.752-0.246,0.949-0.791,0.822-1.509    c0.332,0.19,0.721,0.319,0.979,0.579c3.106,3.107,3.68,2.486,6.293,0.225c0.188-0.162,0.497-0.193,0.667-0.369    c0.82-0.844,1.632-1.768,0.954-3.018c-0.595-1.098,0.181-1.975,0.241-2.956c0.121-0.212,0.179-0.437,0.172-0.681    c0.955-2.039,0.869-2.225-1.557-3.297c-0.106-0.973-0.137-1.938,0.258-2.871c0.721,0.143,1.441,0.281,2.158,0.42    c0.392-1.508-1.109-1.932-1.479-2.926c-0.45-1.211-0.185-2.51-0.132-3.774l0.004-0.002c0.33-0.646,0.984-0.618,1.566-0.8    c1.428-0.448,1.469-0.604,0.698-2.321c0.011-0.007,0.019-0.015,0.027-0.021v-0.004c-0.112-0.914-0.109-1.836,0.608-2.515    c1.129-1.065,0.16-2.784,1.248-3.858c0.064-0.063-0.168-0.426-0.262-0.647C191.705,140.316,191.654,138.762,191.607,137.203z     M190.133,148.877l-0.027-0.023c-0.002,0-0.002,0-0.002-0.004L190.133,148.877z" fill="#CD332C"/></g><g><path d="M86.543,22.292h-8.788l-5.937,22.816l-6.17-22.816h-9.163c1.834,5.382,3.744,10.793,5.578,16.184    c2.785,8.104,4.536,14.211,5.32,18.384v23.529h8.704V56.86L86.543,22.292z M109.805,66.373v-15.17    c0-4.623-0.791-8.004-2.435-10.197c-2.177-2.956-5.228-4.436-9.154-4.436c-3.902,0-6.97,1.48-9.138,4.436    c-1.667,2.193-2.451,5.574-2.451,10.197v15.17c0,4.603,0.784,8.013,2.451,10.185c2.168,2.952,5.236,4.436,9.138,4.436    c3.927,0,6.979-1.484,9.154-4.436C109.014,74.386,109.805,70.976,109.805,66.373z M101.951,67.849    c0,4.006-1.209,6.011-3.735,6.011c-2.535,0-3.752-2.005-3.752-6.011V49.635c0-4.006,1.217-6.003,3.752-6.003    c2.526,0,3.735,1.997,3.735,6.003V67.849z M138.82,80.389V37.096h-7.846v33.092c-1.744,2.456-3.395,3.673-4.961,3.673    c-1.052,0-1.668-0.621-1.836-1.838c-0.1-0.254-0.1-1.213-0.1-3.056V37.096h-7.82V71.33c0,3.056,0.268,5.132,0.7,6.437    c0.774,2.197,2.519,3.227,5.054,3.227c2.858,0,5.836-1.747,8.963-5.328v4.723H138.82L138.82,80.389z" fill="#FFFFFF"/><path d="M164.232,132.941c0,10.013-0.017,20.635-2.25,30.373c-1.567,6.819-7.154,11.855-13.892,12.615    c-15.925,1.775-32.05,1.793-48.092,1.775c-16.058,0.018-32.183,0-48.108-1.775c-6.737-0.76-12.323-5.796-13.882-12.615    c-2.243-9.738-2.243-20.36-2.243-30.373c0-10.03,0.025-20.629,2.268-30.375c1.567-6.829,7.154-11.864,13.882-12.62    c15.925-1.784,32.05-1.784,48.1-1.784s32.175,0,48.108,1.784c6.72,0.755,12.313,5.791,13.874,12.62    C164.241,112.313,164.232,122.911,164.232,132.941z" fill="#FFFFFF"/><path d="M72.411,111.33v-8.102H45.338v8.102h9.138v49.4h8.629v-49.4H72.411z M88.094,160.73v-4.67    c-3.077,3.535-6.011,5.271-8.871,5.271c-2.501,0-4.219-1.019-5.003-3.202c-0.417-1.292-0.684-3.335-0.684-6.361v-33.875h7.763    v31.541c0,1.81,0,2.76,0.075,3.019c0.184,1.2,0.767,1.817,1.818,1.817c1.551,0,3.185-1.209,4.902-3.635v-32.742h7.771v42.838    H88.094L88.094,160.73z M117.602,148.49c0,3.869-1.143,5.777-3.377,5.777c-1.283,0-2.576-0.617-3.877-1.908v-26.113    c1.301-1.275,2.594-1.893,3.877-1.893c2.234,0,3.377,1.992,3.377,5.844V148.49z M125.363,147.874v-17.06    c0-4.053-0.268-6.887-0.784-8.621c-1.033-3.201-3.118-4.827-6.211-4.827c-2.845,0-5.513,1.56-8.021,4.646V103.23h-7.763v57.5    h7.763v-4.151c2.594,3.21,5.262,4.753,8.021,4.753c3.093,0,5.178-1.635,6.211-4.818    C125.098,154.693,125.363,151.844,125.363,147.874z M146.898,134.268h-7.762v-3.97c0-3.952,1.301-5.944,3.893-5.944    c2.561,0,3.869,1.992,3.869,5.944V134.268z M154.662,147.023v-1.135h-7.921c0,3.118-0.101,4.836-0.167,5.262    c-0.45,2.076-1.567,3.117-3.477,3.117c-2.66,0-3.961-1.976-3.961-5.943v-7.596h15.524v-8.871c0-4.586-0.784-7.93-2.401-10.099    c-2.185-2.935-5.27-4.394-9.162-4.394c-3.961,0-7.063,1.459-9.298,4.394c-1.649,2.169-2.401,5.513-2.401,10.099v15.008    c0,4.544,0.852,7.929,2.494,10.063c2.242,2.936,5.328,4.402,9.404,4.402c4.043,0,7.229-1.543,9.38-4.652    c0.941-1.367,1.552-2.936,1.817-4.652C154.563,151.242,154.662,149.523,154.662,147.023z" fill="#CD332C"/></g></g></svg>